<svg width="24" height="24" viewBox="0 0 24 24" fill="none" xmlns="http://www.w3.org/2000/svg">
    <path fill-rule="evenodd" clip-rule="evenodd" d="M4.379 3.15a.48.48 0 00-.7 0l-.53.53a.48.48 0 000 .7L5.748 7a9.659 9.659 0 00-3.688 4.68A1 1 0 002 12c0 .106.02.212.06.31A10.644 10.644 0 0011.994 19a10.99 10.99 0 004.667-1.09l2.948 2.94a.48.48 0 00.7 0l.53-.53a.48.48 0 000-.7L4.378 3.15zM11.994 15a3 3 0 01-2.998-3c.002-.49.13-.972.37-1.4l3.997 4a2.888 2.888 0 01-1.37.4zM9.116 5.41a10.662 10.662 0 0112.872 6.29c.016.1.016.2 0 .3a.811.811 0 01-.06.33 9.412 9.412 0 01-2.329 3.57L9.116 5.41z" fill="currentColor" />
</svg>
