<svg width="24" height="24" viewBox="0 0 24 24" fill="currentColor" xmlns="http://www.w3.org/2000/svg">
<path fill-rule="evenodd" clip-rule="evenodd" d="M10 12C12.2091 12 14 10.2091 14 8C14 5.79086 12.2091 4 10 4C7.79086 4 6 5.79086 6 8C6 10.2091 7.79086 12 10 12ZM10 14C13.3137 14 16 11.3137 16 8C16 4.68629 13.3137 2 10 2C6.68629 2 4 4.68629 4 8C4 11.3137 6.68629 14 10 14Z" fill="currentColor"/>
<path fill-rule="evenodd" clip-rule="evenodd" d="M16.5 14C17.3284 14 18 13.3284 18 12.5C18 11.6716 17.3284 11 16.5 11C15.6716 11 15 11.6716 15 12.5C15 13.3284 15.6716 14 16.5 14ZM16.5 16C18.433 16 20 14.433 20 12.5C20 10.567 18.433 9 16.5 9C14.567 9 13 10.567 13 12.5C13 14.433 14.567 16 16.5 16Z" fill="currentColor"/>
<path fill-rule="evenodd" clip-rule="evenodd" d="M10 14C6.13401 14 3 17.134 3 21C3 21.5523 2.55228 22 2 22C1.44772 22 1 21.5523 1 21C1 16.0294 5.02944 12 10 12C14.9706 12 19 16.0294 19 21C19 21.5523 18.5523 22 18 22C17.4477 22 17 21.5523 17 21C17 17.134 13.866 14 10 14Z" fill="currentColor"/>
<path fill-rule="evenodd" clip-rule="evenodd" d="M16 16C16 15.4477 16.4477 15 17 15C20.3137 15 23 17.6863 23 21C23 21.5523 22.5523 22 22 22C21.4477 22 21 21.5523 21 21C21 18.7909 19.2091 17 17 17C16.4477 17 16 16.5523 16 16Z" fill="currentColor"/>
</svg>
