<svg width="24" height="24" viewBox="0 0 24 24" fill="none" xmlns="http://www.w3.org/2000/svg">
  <path fill-rule="evenodd" clip-rule="evenodd" d="M21.988 11.7A10.643 10.643 0 0011.994 5a10.643 10.643 0 00-9.934 6.67A1 1 0 002 12c0 .106.02.212.06.31A10.643 10.643 0 0011.994 19a10.644 10.644 0 009.934-6.67.81.81 0 00.06-.33c.016-.1.016-.2 0-.3zM11.994 17a8.814 8.814 0 01-7.925-5 8.784 8.784 0 0115.85 0 8.814 8.814 0 01-7.925 5zm-2.998-5a3 3 0 112.998 3 3 3 0 01-2.998-3z" fill="currentColor" />
</svg>
