<svg width="16" height="16" viewBox="0 0 16 16" fill="currentColor" xmlns="http://www.w3.org/2000/svg">
  <path fill-rule="evenodd" clip-rule="evenodd" d="M8.51092 2.65519C8.67289 2.72231 8.82006 2.82068 8.944 2.94469L13.056 7.05602C13.1801 7.17998 13.2786 7.32719 13.3457 7.48922C13.4129 7.65126 13.4475 7.82495 13.4475 8.00036C13.4475 8.17577 13.4129 8.34946 13.3457 8.51149C13.2786 8.67353 13.1801 8.82073 13.056 8.94469L8.944 13.056C8.82006 13.18 8.67289 13.2784 8.51092 13.3455C8.34894 13.4126 8.17533 13.4472 8 13.4472C7.82467 13.4472 7.65106 13.4126 7.48908 13.3455C7.32711 13.2784 7.17995 13.18 7.056 13.056L2.944 8.94469C2.81989 8.82073 2.72143 8.67353 2.65426 8.51149C2.58708 8.34946 2.55251 8.17577 2.55251 8.00036C2.55251 7.82495 2.58708 7.65126 2.65426 7.48922C2.72143 7.32719 2.81989 7.17998 2.944 7.05602L7.056 2.94469C7.17995 2.82068 7.32711 2.72231 7.48908 2.65519C7.65106 2.58807 7.82467 2.55353 8 2.55353C8.17533 2.55353 8.34894 2.58807 8.51092 2.65519ZM7.5286 9.13809C7.65362 9.26311 7.82319 9.33335 8 9.33335C8.17681 9.33335 8.34638 9.26311 8.4714 9.13809C8.59643 9.01307 8.66667 8.8435 8.66667 8.66669V5.33335C8.66667 5.15654 8.59643 4.98697 8.4714 4.86195C8.34638 4.73692 8.17681 4.66669 8 4.66669C7.82319 4.66669 7.65362 4.73692 7.5286 4.86195C7.40357 4.98697 7.33333 5.15654 7.33333 5.33335V8.66669C7.33333 8.8435 7.40357 9.01307 7.5286 9.13809ZM7.5286 11.1381C7.65362 11.2631 7.82319 11.3334 8 11.3334C8.17681 11.3334 8.34638 11.2631 8.4714 11.1381C8.59643 11.0131 8.66667 10.8435 8.66667 10.6667C8.66667 10.4899 8.59643 10.3203 8.4714 10.1953C8.34638 10.0703 8.17681 10 8 10C7.82319 10 7.65362 10.0703 7.5286 10.1953C7.40357 10.3203 7.33333 10.4899 7.33333 10.6667C7.33333 10.8435 7.40357 11.0131 7.5286 11.1381Z" />
</svg>
