<svg width="16" height="16" viewBox="0 0 16 16" fill="currentColor" xmlns="http://www.w3.org/2000/svg">
  <path fill-rule="evenodd" clip-rule="evenodd" d="M8 13.3334C6.58552 13.3334 5.22896 12.7715 4.22877 11.7713C3.22857 10.7711 2.66667 9.41451 2.66667 8.00002C2.66667 6.58553 3.22857 5.22898 4.22877 4.22878C5.22896 3.22859 6.58552 2.66669 8 2.66669C9.41449 2.66669 10.771 3.22859 11.7712 4.22878C12.7714 5.22898 13.3333 6.58553 13.3333 8.00002C13.3333 9.41451 12.7714 10.7711 11.7712 11.7713C10.771 12.7715 9.41449 13.3334 8 13.3334ZM8.90934 6.02402L7.47467 8.76402L6.446 7.83735C6.38091 7.77878 6.30492 7.73361 6.22237 7.70441C6.13982 7.67521 6.05233 7.66255 5.96489 7.66716C5.87744 7.67177 5.79177 7.69356 5.71275 7.73129C5.63372 7.76901 5.56291 7.82193 5.50434 7.88702C5.44577 7.95211 5.40059 8.0281 5.37139 8.11065C5.34219 8.1932 5.32953 8.2807 5.33415 8.36814C5.33876 8.45558 5.36055 8.54126 5.39827 8.62028C5.43599 8.6993 5.48891 8.77012 5.55401 8.82869L7.22067 10.3287C7.29619 10.3967 7.38625 10.4465 7.48398 10.4744C7.58171 10.5023 7.68451 10.5074 7.78454 10.4895C7.88457 10.4715 7.97917 10.431 8.06111 10.3709C8.14306 10.3108 8.21018 10.2327 8.25734 10.1427L10.0907 6.64269C10.1727 6.48603 10.1892 6.3032 10.1364 6.13442C10.0836 5.96564 9.96599 5.82473 9.80934 5.74269C9.65268 5.66065 9.46985 5.6442 9.30107 5.69696C9.13229 5.74972 8.99138 5.86737 8.90934 6.02402Z" />
</svg>
